# xmcd CD database file
#
# Track frame offsets:
#	150
#	10790
#	21517
#	31738
#	42944
#	53278
#	67198
#	76915
#	86522
#	96811
#	106396
#	117180
#	128363
#	140288
#	149102
#	159196
#	168296
#	178385
#	189342
#	200152
#
# Disc length: 2825 seconds
#
# Revision: 0
# Processed by: cddbd v1.5.1PL0 Copyright (c) Steve Scherf et al.
# Submitted via: Feurio! 1.66 - http://www.feurio.com
#
DISCID=070b0714
DTITLE=Various Artist - Rebel Rouser - 20 Instrumental Greats
DYEAR=1900
DGENRE=
TTITLE0=Duane Eddy - Rebel Rouser
TTITLE1=Surfaris - Wipe Out
TTITLE2=The Champs - Tequila
TTITLE3=Lonnie Mack - Memphis
TTITLE4=Chantays - Pipeline
TTITLE5=Sputnicks - Telstar
TTITLE6=The Champs - Limbo Rock
TTITLE7=The Ventures - Walk Don't Run
TTITLE8=Rockin' Rebels - Wild Weekend
TTITLE9=Duane Eddy - Because They're Young
TTITLE10=Santo and Johnny - Sleepwalk
TTITLE11=Mongo Santamaria - Watermelon Man
TTITLE12=Incredible Bongo Band - Bongo Rock
TTITLE13=String-A-Longs - Wheels
TTITLE14=B. Bumble and The Stingers - Bumble Boogie
TTITLE15=Dave Baby Cortez - The Happy Organ
TTITLE16=Johnny and The Hurricanes - Red River Rock
TTITLE17=Bill Justis - Raunchy
TTITLE18=Virtues - Guitar Boogie Shuffle
TTITLE19=Ernie Fields - In The Mood
EXTD=
EXTT0=
EXTT1=
EXTT2=
EXTT3=
EXTT4=
EXTT5=
EXTT6=
EXTT7=
EXTT8=
EXTT9=
EXTT10=
EXTT11=
EXTT12=
EXTT13=
EXTT14=
EXTT15=
EXTT16=
EXTT17=
EXTT18=
EXTT19=
PLAYORDER=
